<svg width="14" height="14" viewBox="0 0 14 14" fill="none" xmlns="http://www.w3.org/2000/svg">
<path d="M13 0C13.5625 0 14 0.46875 14 1V13C14 13.5625 13.5625 14 13 14H1C0.4375 14 0 13.5625 0 13V1C0 0.46875 0.4375 0 1 0H13ZM4.21875 12H4.25V5.3125H2.15625V12H4.21875ZM3.1875 2C2.53125 2 2 2.53125 2 3.21875C2 3.875 2.53125 4.40625 3.1875 4.40625C3.84375 4.40625 4.40625 3.875 4.40625 3.21875C4.40625 2.53125 3.84375 2 3.1875 2ZM12 12V8.34375C12 6.53125 11.625 5.15625 9.53125 5.15625C8.5 5.15625 7.84375 5.71875 7.5625 6.21875H7.53125V5.3125H5.53125V12H7.625V8.6875C7.625 7.8125 7.78125 6.96875 8.84375 6.96875C9.90625 6.96875 9.9375 7.96875 9.9375 8.75V12H12Z" fill="black"/>
</svg>
